<?xml version="1.0" standalone="no"?>
<!DOCTYPE svg PUBLIC "-//W3C//DTD SVG 20010904//EN"
 "http://www.w3.org/TR/2001/REC-SVG-20010904/DTD/svg10.dtd">
<svg version="1.0" xmlns="http://www.w3.org/2000/svg"
 width="728.000000pt" height="724.000000pt" viewBox="0 0 728.000000 724.000000"
 preserveAspectRatio="xMidYMid meet">

<g transform="translate(0.000000,724.000000) scale(0.100000,-0.100000)"
fill="#000000" stroke="none">
<path d="M5790 7201 c-166 -56 -235 -98 -460 -285 -98 -81 -630 -605 -630
-621 0 -5 364 -374 808 -818 l808 -808 285 288 c405 409 516 550 612 773 157
367 21 815 -355 1176 -148 142 -328 252 -506 308 -77 24 -96 26 -265 26 l-182
-1 -115 -38z"/>
<path d="M3773 5372 c-282 -284 -975 -980 -1540 -1545 l-1028 -1028 -37 -87
c-20 -48 -95 -224 -167 -392 -71 -168 -207 -487 -302 -710 -94 -223 -198 -466
-229 -540 -107 -251 -347 -804 -404 -930 -31 -68 -56 -128 -56 -133 0 -23 94
13 504 192 391 170 575 249 1106 476 80 34 388 166 685 294 l541 232 1534
1535 1534 1535 -804 808 c-443 444 -809 808 -815 809 -5 1 -241 -231 -522
-516z m-2163 -2898 c126 -108 681 -665 827 -829 99 -111 116 -134 110 -148 -5
-13 -350 -173 -737 -342 -224 -98 -288 -126 -495 -218 -93 -42 -190 -83 -213
-93 l-44 -17 -109 109 c-60 60 -109 114 -109 120 0 6 81 191 181 410 99 220
212 469 251 554 106 233 248 510 261 510 7 0 41 -25 77 -56z"/>
</g>
</svg>
